inDegrees=no
num_controls=7
num_derivatives=13
num_iterations=142
num_multipliers=7
num_parameters=0
num_slacks=7
num_states=26
objective=6.374906
objective_accelerations=0.499636
objective_balance=0.025546
objective_effort=0.491201
objective_height=5.245740
objective_ligament=0.112783
solver_duration=1223.440505
status=Solve_Succeeded
success=true
DataType=double
version=3
OpenSimVersion=4.4-2022-07-23-0e9fedc
endheader
time	/jointset/ground_pelvis/pelvis_tilt/value	/jointset/ground_pelvis/pelvis_tx/value	/jointset/ground_pelvis/pelvis_ty/value	/jointset/hip_r/hip_flexion_r/value	/jointset/hip_r/hip_adduction_r/value	/jointset/hip_r/hip_rotation_r/value	/jointset/back/lumbar_extension/value	/jointset/patellofemoral_r/patellar_flexion_r/value	/jointset/knee_r/knee_flexion_r/value	/jointset/knee_r/knee_adduction_r/value	/jointset/knee_r/knee_rotation_r/value	/jointset/ankle_r/ankle_angle_r/value	/jointset/subtalar_r/subtalar_angle_r/value	/jointset/ground_pelvis/pelvis_tilt/speed	/jointset/ground_pelvis/pelvis_tx/speed	/jointset/ground_pelvis/pelvis_ty/speed	/jointset/hip_r/hip_flexion_r/speed	/jointset/hip_r/hip_adduction_r/speed	/jointset/hip_r/hip_rotation_r/speed	/jointset/back/lumbar_extension/speed	/jointset/patellofemoral_r/patellar_flexion_r/speed	/jointset/knee_r/knee_flexion_r/speed	/jointset/knee_r/knee_adduction_r/speed	/jointset/knee_r/knee_rotation_r/speed	/jointset/ankle_r/ankle_angle_r/speed	/jointset/subtalar_r/subtalar_angle_r/speed	/forceset/tau_hip_flexion_r	/forceset/tau_hip_adduction_r	/forceset/tau_hip_rotation_r	/forceset/tau_knee_flexion_r	/forceset/tau_ankle_angle_r	/forceset/tau_subtalar_angle_r	/forceset/tau_lumbar_extension	lambda_cid13_p0	lambda_cid14_p0	lambda_cid14_p1	lambda_cid14_p2	lambda_cid14_p3	lambda_cid14_p4	lambda_cid14_p5	/jointset/ground_pelvis/pelvis_tilt/accel	/jointset/ground_pelvis/pelvis_tx/accel	/jointset/ground_pelvis/pelvis_ty/accel	/jointset/hip_r/hip_flexion_r/accel	/jointset/hip_r/hip_adduction_r/accel	/jointset/hip_r/hip_rotation_r/accel	/jointset/back/lumbar_extension/accel	/jointset/patellofemoral_r/patellar_flexion_r/accel	/jointset/knee_r/knee_flexion_r/accel	/jointset/knee_r/knee_adduction_r/accel	/jointset/knee_r/knee_rotation_r/accel	/jointset/ankle_r/ankle_angle_r/accel	/jointset/subtalar_r/subtalar_angle_r/accel	gamma_cid13_p0	gamma_cid14_p0	gamma_cid14_p1	gamma_cid14_p2	gamma_cid14_p3	gamma_cid14_p4	gamma_cid14_p5
0	-0.006516512115623497	0.09626111347259556	0.9427240692472483	0.1762555651711513	-0.2321523113553406	-0.2616408218761719	-0.0385979564078546	0.07317816487771701	0.07317816487761825	0.1745321127170682	0.1745328658534892	0.0324735960626065	-0.003451377931338397	0	0	0	0	0	0	0	0	0	0	0	0	0	0.233643983927569	-0.1203611089156863	-0.04368289178992118	-0.3984583126174294	0.3754137486021754	-0.1762613974270106	-0.1312453774724003	-39.07572175320163	68.82909489916555	-54.42353534604256	-2.371863212331767	-14.54494493249822	-683.0741366087096	28.05680877490193	-2.982236438729353	-1.659004615939079	-0.6758055708426798	10.21300830137923	0.2762868601497374	2.179492558938002	-5.339365547554793	8.414374708920615	8.414374708919402	-2.837145763947582	0.1504954076331576	1.943889075473718	0.7216673612470278	8.030921006008984e-08	4.464388261008205e-08	-5.226678964763745e-07	1.606855212098736e-07	2.948838278756378e-08	7.388682799082326e-09	-2.511930421072943e-07
0.01	-0.006658370013233569	0.09617895471932732	0.9426914677933045	0.1767513269899284	-0.2321374136482304	-0.2615249191367495	-0.03886761966197494	0.07358647773762844	0.07358647773741601	0.1743905803773631	0.1745299390715563	0.0325672718308733	-0.003415047180077771	-0.02825563046807461	-0.01638636942859042	-0.006505642792631152	0.09873937161889619	0.002931729970956927	0.02304933037782995	-0.0535943105783859	0.08128825772737593	0.08128825772737248	-0.02809542683657601	-0.0005645490984937762	0.01859566252002287	0.007184596311661632	0.2274180597552578	-0.1600625502905093	-0.04169408331656461	-0.3900849292637641	0.3548542958520722	-0.1345718978632904	-0.1262776207918002	-39.08923961427312	63.81436543532671	-37.40130315060151	-4.850972403898595	-12.45670700675215	-683.2682861400363	61.54888714634924	-2.729828782908754	-1.621640030552028	-0.6357449561406792	9.642457675739598	0.2943893849610686	2.348010284147259	-5.318712771119306	7.929888108434365	7.929888108434326	-2.764150895715329	-0.1567613344033528	1.79649525980119	0.7045587404464045	1.116517051085622e-07	5.500046279501666e-08	-7.048247333738427e-07	1.633377463130923e-07	5.103720964057568e-08	-1.308613595381957e-07	-2.953100016339278e-07
0.02	-0.007079304702053209	0.09593429488692048	0.9425942496468908	0.1782220937416293	-0.2320946439775623	-0.2611824516923032	-0.03966307581353751	0.07479644053540932	0.07479644053541158	0.173974411819553	0.1745220005462402	0.03284272230820773	-0.003309329870836631	-0.05581535821820871	-0.03250021582771701	-0.0129233384939518	0.1950009865814646	0.005574392717493038	0.04531294103326362	-0.1051585794820033	0.1603299876062674	0.1603299876062731	-0.05492724376126706	-0.001002348829471238	0.03635494182138593	0.01387731159613578	0.2211921355839097	-0.1997639916649863	-0.03970527484133401	-0.3817115459098308	0.3342948431022807	-0.09288239829915775	-0.1213098641106867	-39.1292171659634	58.873795747382	-20.38111078281237	-7.312592075487319	-10.46409324100274	-682.2851982109935	94.82881708411222	-2.843055895138842	-1.604500010048342	-0.6582161525805343	9.717456970113737	0.2184734152651649	2.022348614457474	-4.933357212599375	7.965069139224233	7.965069139225544	-2.58442378156978	0.175845281137816	1.776612431739409	0.6232911558085441	1.429942001570346e-07	6.535704297995126e-08	-8.869815702713109e-07	1.659899714163109e-07	7.258603649358758e-08	-2.691114018754738e-07	-3.394269611605613e-07
0.03	-0.007772475423463488	0.09553006089082353	0.942433064899415	0.1806433727024772	-0.2320270443511878	-0.2606228936568145	-0.04096326394118358	0.07678661549351974	0.07678661549352488	0.1732966069611234	0.1745119683098931	0.03329212988607874	-0.003139146711981714	-0.08266624917149779	-0.04827849737805941	-0.01931389459206988	0.2887866832221018	0.00788308501768465	0.06648678106024335	-0.1545130098362662	0.2373538383597085	0.2373538383596816	-0.08038362183329978	-0.001011817192182806	0.0534241064408674	0.02007128810882671	0.2138125623613961	-0.1821446947671392	-0.03813974904018042	-0.3732506646029036	0.3263791154414616	-0.1038730860600239	-0.1154432848728215	-39.19467896050095	55.99914297042487	-25.63230222125675	-6.504416839426587	-8.800453912162064	-681.2991783817988	83.03401889756294	-2.583208657456379	-1.554264726645905	-0.6295722577631064	9.138918601560599	0.2275928779196172	2.148167836094472	-4.88158051074408	7.518339471253737	7.51833947124793	-2.488853754427256	-0.09043732665167371	1.656727553315219	0.6041243612137734	1.550481887596138e-07	6.4878435116881e-08	-9.574492373225645e-07	1.465374083577863e-07	8.531477859080042e-08	-3.751750741936427e-07	-3.409376510234733e-07
0.04	-0.008729575646904414	0.09497008957939419	0.942207955207082	0.183988467147786	-0.2319382526537058	-0.259854943993181	-0.04274601528517399	0.07953648824470774	0.07953648824471259	0.1723717165350637	0.174501622503416	0.03390916092539301	-0.002909689095556512	-0.1086012586055887	-0.06364767889419254	-0.02570832746540219	0.3797640834835943	0.009812806938820353	0.08699126665824231	-0.2016712227464009	0.3122695462271097	0.3122695462270461	-0.104344357281584	-0.00106506282190812	0.06987963411080977	0.02573220311006878	0.2064329891388721	-0.1645253978692776	-0.03657422323905479	-0.364789783296147	0.3184633877805704	-0.1148637738208913	-0.1095767056348463	-39.28432795892476	53.19094854652462	-30.89148316184551	-5.67254844555321	-7.219443257938443	-679.2381730389988	71.02911470344567	-2.659879591296739	-1.522680003208429	-0.6589915076233384	9.15579769428496	0.142679339453622	1.888477728660137	-4.494113723772019	7.54344056201673	7.543440562017236	-2.285295256819397	0.1670898277363684	1.653885041829346	0.5166788535178658	1.667044761983601e-07	6.417642131467661e-08	-1.025614034892453e-06	1.266290764711845e-07	9.786166327036794e-08	-4.805751100165721e-07	-3.415698610995044e-07
0.05	-0.009942253677974819	0.09425853753902938	0.9419186526068709	0.1882303758639787	-0.2318320000415438	-0.2588869073412371	-0.04498906863561667	0.08302570361699804	0.08302570361703049	0.1712146769012518	0.1744920920107684	0.03468791027644835	-0.00262614234309057	-0.1338063164655542	-0.07858510639583892	-0.03216573858121024	0.4681650525693627	0.011397910408101	0.1064941430537304	-0.2465994988668372	0.3852123350202662	0.385212335020196	-0.1268445371765372	-0.0008622610815625278	0.0857761442529122	0.03091597880938398	0.1995394383683784	-0.1615012586901006	-0.03494035898037848	-0.3584722818774115	0.3103771474165609	-0.1126369327922701	-0.1040721400604478	-39.39670748207003	50.8132278361441	-30.41109018181492	-5.668720478233017	-6.328320145046634	-677.5489329462683	70.64255964709533	-2.431591678727716	-1.46761103772008	-0.6412447808334999	8.614368506606063	0.1603237371683342	1.962950332890129	-4.441192280869676	7.115485622552621	7.115485622551296	-2.19967633343398	-0.05624638452223489	1.543456070399384	0.5099034041265358	1.642354210402484e-07	5.898364716792165e-08	-9.954678556185994e-07	1.277177750859384e-07	1.018144398373514e-07	-5.422600119826552e-07	-3.378973945132113e-07
